Coordinates

Units are S.I. units (second, meters, Newtons, ...)
If the header above contains a line with 'inDegrees', this indicates whether rotational values are in degrees (yes) or radians (no).

inDegrees=no
nColumns=21
nRows=30
DataType=double
version=3
OpenSimVersion=4.6-2026-03-31-d6972f9e6
endheader
time	/jointset/ground_pelvis/pelvis_tilt/value	/jointset/ground_pelvis/pelvis_list/value	/jointset/ground_pelvis/pelvis_rotation/value	/jointset/ground_pelvis/pelvis_tx/value	/jointset/ground_pelvis/pelvis_ty/value	/jointset/ground_pelvis/pelvis_tz/value	/jointset/hip_r/hip_flexion_r/value	/jointset/hip_r/hip_adduction_r/value	/jointset/hip_r/hip_rotation_r/value	/jointset/walker_knee_r/knee_angle_r/value	/jointset/patellofemoral_r/knee_angle_r_beta/value	/jointset/ankle_r/ankle_angle_r/value	/jointset/subtalar_r/subtalar_angle_r/value	/jointset/hip_l/hip_flexion_l/value	/jointset/hip_l/hip_adduction_l/value	/jointset/hip_l/hip_rotation_l/value	/jointset/walker_knee_l/knee_angle_l/value	/jointset/patellofemoral_l/knee_angle_l_beta/value	/jointset/ankle_l/ankle_angle_l/value	/jointset/subtalar_l/subtalar_angle_l/value
142.496	-0.105538900739246	-0.1394118917038965	1.567033758319442	0.8244039596001826	0.9709860688990362	-0.7295285012062214	-0.2538538681626765	-0.1061676319467307	-0.02095891071899891	0.2785175723993048	0.2785175715320947	-0.6622178967433401	-0.28019680393183	0.4961964476449362	0.08227299012902597	-0.04116667435199217	0.3760662033245834	0.3760662013337589	-0.282455400418977	-0.2318429003953283
142.5	-0.1063556298143238	-0.1427901179338195	1.567012444661824	0.8240925635410545	0.9708705686776171	-0.7298676479694743	-0.2521402855981358	-0.1075881197435238	-0.01288531449601314	0.2877729236272742	0.2877729227678272	-0.6677733911068845	-0.2814774549865121	0.4969141640399506	0.08578354621144021	-0.03747031564210036	0.3506403752982181	0.3506403733593273	-0.2823341072089933	-0.2159172428933203
142.504	-0.1066989083451619	-0.1456067868554438	1.567026013881089	0.8237901440667187	0.9706285081674902	-0.7301679048002603	-0.2502706263276216	-0.1084836515987785	-0.004343122947214436	0.2986004237712277	0.2986004229562003	-0.6717076217128019	-0.283227104343472	0.4973146575402935	0.08866553383593889	-0.03311280347499756	0.3276238141692714	0.3276238123171195	-0.2827034052471583	-0.2013705736096042
142.508	-0.106628993464582	-0.1478447987564489	1.567067409970618	0.8234966873803111	0.9702645707660376	-0.7304326106206986	-0.2482843530961363	-0.1089252886986078	0.004523251394351668	0.3109334735929907	0.3109334728531781	-0.6742340569684621	-0.2855205586527269	0.4973916648864378	0.09097984843685496	-0.02811056073932206	0.3071225264725663	0.307122524737383	-0.2835396551932344	-0.1884300588705178
142.512	-0.1062067622043802	-0.149490305202592	1.567129398608367	0.8232114823273948	0.9697827717652524	-0.7306658049711469	-0.24622228408825	-0.1089884580984336	0.01355738616143865	0.3246938584690106	0.3246938578284307	-0.675574097757113	-0.2884278278401884	0.4971379377967485	0.09279243274531973	-0.02248340776679379	0.289227859133272	0.2892278575393271	-0.2847936555530635	-0.1772973538321186
142.516	-0.1054926078005616	-0.1505317988063598	1.567204996287412	0.822933133542337	0.9691863850319077	-0.7308720579838465	-0.2441267985634305	-0.1087521803636451	0.02259434801622459	0.3397943226071888	0.3397943220829218	-0.6759487453139719	-0.2920105601974719	0.4965446015801299	0.09417342160185024	-0.01625569394312194	0.2740161855974756	0.2740161841621084	-0.2863881129484363	-0.1681434450052963
142.52	-0.1045456574793384	-0.1509593693549662	1.567287791377128	0.8226596177460952	0.9684779154621014	-0.7310562813883723	-0.2420417520248935	-0.1082984359887843	0.03146447974606745	0.3561412964897187	0.3561412960923633	-0.6755710459629272	-0.2963196269826961	0.495600542865092	0.09519637383924244	-0.009457681769633779	0.2615482255075406	0.2615482242407527	-0.2882159225227136	-0.1611035028119497
142.524	-0.103423275753199	-0.1507642845917891	1.567372168384093	0.8223883797543421	0.9676591076500518	-0.7312235248975254	-0.2400119505088829	-0.1077116091011002	0.03999733813723477	0.3736376819038837	0.373637681638296	-0.6746395854174914	-0.3013939496658538	0.4942920301081251	0.09593754026176673	-0.002127108330317505	0.25186803819531	0.2518680370999696	-0.2901395077031526	-0.1562720389957839
142.528	-0.1021807758342979	-0.1499389782374202	1.567453444657986	0.8221164626206802	0.9667309842825429	-0.7313787605565499	-0.2380821009695693	-0.1070779170444797	0.04802575712625432	0.392185626011713	0.3921856258777328	-0.6733332245685512	-0.3072604377492996	0.4926027209043485	0.09647509114840054	0.005689156272164692	0.2450018026940583	0.2450018017665409	-0.2919914875680729	-0.1536988621424847
142.532	-0.1008712646320236	-0.148477418575485	1.567527928897374	0.8218406642222387	0.9656939139640384	-0.7315266575752821	-0.2362952739687194	-0.1064847531316043	0.05539003975825534	0.411689221136226	0.4116892211293635	-0.6718071660833574	-0.3139347068596356	0.4905140892104052	0.09688824922839938	0.01393348488334908	0.2409565059741605	0.240956505205179	-0.2935769207960315	-0.1533863687598559
142.536	-0.09954556760978241	-0.1463757810134575	1.567592914436132	0.8215577113510275	0.9645477096959101	-0.7316713520440787	-0.2346909818033616	-0.1060199067420005	0.06194218861988222	0.4320570637854797	0.4320570638976941	-0.6701902977283278	-0.3214222146386057	0.4880062104650646	0.09725631177797299	0.02253613016316094	0.239718600086767	0.2397185994623424	-0.2946773074927569	-0.1552885914508294
142.54	-0.09825220219910558	-0.1436333745952388	1.567646624004537	0.8212644415555825	0.9632917551976996	-0.7318162187317763	-0.2333029579982444	-0.1057706599105856	0.06754996317200454	0.4532046104952794	0.4532046107158458	-0.6685836405298869	-0.3297195586253315	0.4850588259174404	0.09765757893076975	0.03141442568133151	0.2412526235570944	0.241252623059823	-0.2950564079714941	-0.1593122088018476
142.544	-0.09703739557445007	-0.1402537584324035	1.567688122096643	0.8209579826639668	0.9619251563799882	-0.731963656061093	-0.2321567622325007	-0.1058227954955324	0.07210054059174643	0.4750562308209909	0.4750562311372393	-0.6670597306345162	-0.3388156991175849	0.48165259272648	0.09816823277421234	0.04047278287344083	0.2454998133274256	0.2454998129381217	-0.2944677506933173	-0.1653194712440798
142.548	-0.09594516207158094	-0.1362459135150451	1.567717207605316	0.8206359203591593	0.9604469199188467	-0.7321148985144638	-0.2312674391525651	-0.1062595770326759	0.07550363237376453	0.4975467957475991	0.4975467961453277	-0.6656628358654829	-0.3486928033251804	0.4777703891937803	0.09886122665555257	0.04960353905581927	0.2523768393276977	0.2523768390272507	-0.2926634983752668	-0.1731327959943141
142.552	-0.0950174360511899	-0.1316253498932093	1.567734297382474	0.8202964447330923	0.9588561565534409	-0.7322698686515532	-0.2306374294746625	-0.1071607418634307	0.07769394206999145	0.520622677496589	0.5206226779601297	-0.6644099129548917	-0.3593265300779847	0.4733985916223395	0.09980523107005121	0.05868863487924666	0.2617748674977775	0.2617748672688539	-0.2894042159836772	-0.1825407715702184
142.556	-0.0942942147628619	-0.1264151206053686	1.56774031043426	0.8199384676859731	0.9571522957687272	-0.7324270753723067	-0.2302547862488256	-0.10860150389342	0.07863283883527629	0.5442421530735895	0.5442421535856372	-0.6632921540244678	-0.3706858418711992	0.4685283404242573	0.1010636556697057	0.06760213948620336	0.2735591566772365	0.273559156505351	-0.2844690515218283	-0.1933054169639304
142.56	-0.09381365692616984	-0.1206467072844293	1.567736559180416	0.819561706048018	0.9553353004061137	-0.7325835636690318	-0.2300917482502645	-0.1106515461241659	0.0783091773181783	0.5683752236619214	0.5683752242033252	-0.6622769856561392	-0.3827324799021691	0.4631567825907896	0.1026937556026678	0.07621360603762768	0.287569341167512	0.2875693410410973	-0.2776658128443786	-0.2051704423392732
142.564	-0.09361209940349079	-0.114360653941848	1.567724649954596	0.8191667293427081	0.9534058819894004	-0.7327349235984082	-0.2301038453730752	-0.1133739924380857	0.07673930293449657	0.5930027923802433	0.5930027929299724	-0.6613104778531843	-0.3954200908683986	0.4572881511348951	0.1047458261822555	0.08439209138046314	0.3036204808009563	0.3036204807104325	-0.2688403697569924	-0.2178699729348327
142.568	-0.09372394805496367	-0.1076068402573021	1.567706393171013	0.8187549726910356	0.9513657181056413	-0.7328753645576148	-0.2302296865109283	-0.1168243366449424	0.07396633390843159	0.6181151585460247	0.6181151590814422	-0.6603201726174304	-0.4086930063266337	0.4509345460139518	0.1072624717887803	0.09201058012737448	0.3215049118930176	0.3215049118292435	-0.2578848256835873	-0.2311371342677256
142.572	-0.09418137805461707	-0.1004443953252028	1.567683723279502	0.8183287148303506	0.9492176622436486	-0.7329978543289475	-0.2303914169645015	-0.1210492805606479	0.07005880846831206	0.6437098953279806	0.6437098958255147	-0.6592183219441043	-0.4224848543040547	0.4441164018972453	0.1102779167756151	0.09895057790368679	0.3409948978336067	0.3409948977862584	-0.244744028255463	-0.2447121132461344
142.576	-0.0950137859307577	-0.09294129615371509	1.56765862756881	0.8178910218585407	0.9469659318972976	-0.7330943171744927	-0.2304957606858657	-0.1260854342646756	0.06510878571783485	0.66978924672161	0.6697892471578348	-0.657905490895078	-0.4367172754942737	0.4368626697313414	0.1138173285595764	0.1051066699323455	0.361846029839055	0.3618460297954776	-0.2294201102184103	-0.2583494652175461
142.58	-0.09624696897407793	-0.08517367977455528	1.567633081718515	0.8174456594886643	0.9446162628497258	-0.733155882797781	-0.2304355783865678	-0.1319578629303182	0.05922948495391887	0.6963571937275541	0.6963571940804527	-0.6562744699227149	-0.4512990168664615	0.4292107215211967	0.1178961357179509	0.1103908041805215	0.3838012931958236	0.3838012931407424	-0.2119748043448623	-0.2718244207941563
142.584	-0.09790203884318176	-0.07722493056471204	1.567608989639308	0.8169969787140177	0.9421760163531607	-0.7331731750570567	-0.2300918282849242	-0.1386784970147144	0.05255252637725673	0.7234163647353661	0.7234163649853221	-0.6542144514993976	-0.4661257043751991	0.4212060424409939	0.1225193288363074	0.1147359987185898	0.4065957148416932	0.4065957147577934	-0.1925293338490326	-0.2849379192891014
142.588	-0.09999410122579801	-0.06918461372794991	1.567588125786741	0.8165497811157085	0.9396542273570553	-0.7331366272456845	-0.2293358030773449	-0.146244451872373	0.04522481381189519	0.7509649740359418	0.7509649741661574	-0.6516154077262618	-0.481080562049737	0.4129017864111086	0.1276807393847182	0.1180991850684778	0.4299614785195462	0.4299614783885207	-0.1712617955346316	-0.2975201554341615
142.592	-0.102530762455947	-0.06114720956901793	1.567572079783286	0.8161091705195288	0.9370615946424664	-0.7330368121943875	-0.2280316702712449	-0.1546363386943178	0.03740509064297528	0.7789939130389831	0.7789939130354733	-0.6483725249769853	-0.496036141411954	0.404358102112514	0.1333623170936005	0.1204630098566072	0.4536332909686058	0.4536332907721314	-0.1484020925436811	-0.3094325483182881
142.596	-0.1055105511536178	-0.05321050742872695	1.567562204393556	0.8156803979194449	0.9344104251943248	-0.7328647768668621	-0.2260394718256141	-0.1638166762353088	0.02926021550932692	0.8074840590142531	0.8074840588658365	-0.6443904903111908	-0.5108569225345757	0.3956409973967668	0.1395334525073672	0.1218365418272919	0.4773537003724007	0.477353700092811	-0.1242246013528954	-0.3205681476353003
142.6	-0.1089213678346377	-0.04547359009612096	1.567559567753126	0.8152687067777766	0.9317145426463193	-0.7326123691736388	-0.2232186494178907	-0.1737285292639513	0.02096123840211288	0.8364038798678977	0.8364038795664521	-0.6395874463784833	-0.5254026098985773	0.3868206050094077	0.1461504120939969	0.12225490405927	0.5008780826439693	0.5008780822648666	-0.09903888682118989	-0.3308505623486031
142.604	-0.1127391078156876	-0.03803446029392639	1.567564910887465	0.8148791848057464	0.9289891626154032	-0.73227254281728	-0.2194320079914681	-0.1842945302657312	0.01267936899172668	0.8657074492700805	0.8657074488109769	-0.6338984695439485	-0.5395319618996378	0.3779688762663211	0.1531559866080872	0.1217778969882246	0.5239790607789295	0.523979060286156	-0.07317893531320083	-0.3402316001476641
142.608	-0.1169266191029985	-0.0309874029312485	1.567578613022156	0.8145166261045602	0.9262507369378808	-0.731839626836662	-0.2145499773875791	-0.1954164657780783	0.004581907108751141	0.8953329821759325	0.8953329815583491	-0.6272784240215472	-0.5531069500808069	0.3691567911736822	0.160479476433202	0.1204877191773341	0.5464501543001749	0.5464501536832733	-0.04699152850738218	-0.3486879486733195
142.612	-0.121433126346824	-0.02442018317842807	1.56760066849711	0.8141854063032721	0.9235167709840663	-0.731309548206738	-0.2084550255006235	-0.2069755771862035	-0.003171799409724758	0.925201967828675	0.9252019670555485	-0.6197040344316256	-0.5659969890903693	0.3604511977868821	0.1680371106396563	0.1184859229332904	0.5681085036562258	0.5681085029101356	-0.02082445347781455	-0.3562173162034813
